<svg width="75" height="13" viewBox="0 0 75 13" fill="none" xmlns="http://www.w3.org/2000/svg">
    <path fill-rule="evenodd" clip-rule="evenodd" d="M6.84323 2.12061C6.6477 2.06766 6.36329 2.03213 6.15001 2.03213C5.58118 2.03213 5.13686 2.19133 4.85245 2.52704C4.65692 2.77438 4.53253 3.09243 4.53253 3.88775V4.15274H7.19866V6.0965H4.53253V12.7232H2.2217V6.0965H0V4.15274H2.2217V3.79927C2.2217 2.42102 2.54174 1.5904 3.14608 1.00724C3.75041 0.424194 4.65692 0 5.83009 0C6.29227 0 6.71884 0.0354186 7.19866 0.159088L6.84323 2.12061ZM18.2304 6.11884C19.1089 6.11884 19.8643 6.54048 20.3387 7.17305V9.72066C19.8995 10.3532 19.1438 10.7749 18.283 10.7749C17.0004 10.7749 16.0341 9.79098 16.0341 8.45563C16.0341 7.2257 16.895 6.11884 18.2304 6.11884ZM20.4266 12.7076H22.6228V4.18614H20.4266V4.87147C19.7589 4.32676 18.8981 4.01041 17.9317 4.01041C15.6123 4.01041 13.75 5.94312 13.75 8.45563C13.75 9.61526 14.1715 10.6695 14.8392 11.4424C15.5949 12.321 16.7896 12.8832 18.0547 12.8832C18.9155 12.8832 19.7237 12.6197 20.4266 12.0222V12.7076ZM49.2553 7.3487C49.1847 6.59316 48.4967 5.85528 47.5618 5.85528C46.6091 5.85528 45.833 6.57561 45.727 7.3487H49.2553ZM51.39 11.3547C50.5608 12.3386 49.2024 12.8832 47.8793 12.8832C45.3213 12.8832 43.3984 11.1262 43.3984 8.45557C43.3984 6.08365 45.0214 4.01041 47.5618 4.01041C49.9256 4.01041 51.6016 5.99579 51.6016 8.3676C51.6016 8.5962 51.5839 8.82457 51.5487 9.01785H45.6212C45.7446 10.2126 46.7151 11.0384 47.9323 11.0384C48.9025 11.0384 49.6787 10.4936 50.0844 10.0544L51.39 11.3547ZM24.442 12.7232V4.19363H26.6654V4.87952C27.3236 4.35208 28.1418 4.01786 29.1022 4.01786C30.2941 4.01786 31.379 4.54553 32.0905 5.38951C32.6598 6.05794 32.9799 6.9196 32.9799 8.3792V12.7232H30.6676V8.20343C30.6676 7.35933 30.4719 6.9196 30.1517 6.60307C29.8494 6.30422 29.3868 6.12821 28.8532 6.12821C27.8749 6.12821 27.0746 6.74383 26.7543 7.18356V12.7232H24.442ZM42.8571 10.9756C41.8433 12.3108 40.5625 12.8906 38.944 12.8906C36.2758 12.8906 34.3192 10.9228 34.3192 8.46302C34.3192 5.98568 36.3291 4.01786 38.9616 4.01786C40.4557 4.01786 41.7898 4.70297 42.5903 5.72222L40.9539 7.14532C40.4914 6.54795 39.7977 6.12619 38.9616 6.12619C37.6276 6.12619 36.6315 7.16287 36.6315 8.46302C36.6315 9.79838 37.6098 10.7823 39.015 10.7823C39.9577 10.7823 40.7048 10.22 41.0784 9.65787L42.8571 10.9756ZM12.4889 6.12821C12.8173 6.12821 13.1454 6.16346 13.301 6.21615L13.5603 4.08812L13.4757 4.07559C13.271 4.04502 13.0892 4.01786 12.7999 4.01786C11.7804 4.01786 10.8644 4.42234 10.3634 5.05541V4.19363H8.20312V12.7232H10.4497V7.35922C10.7262 6.84922 11.5039 6.12821 12.4889 6.12821ZM63.4796 4.20918V1.84152H61.159V4.20918H58.9286V6.13844H61.159V9.12004C61.159 10.33 61.3554 11.0842 61.8017 11.663C62.3907 12.4346 63.4081 12.8906 64.8004 12.8906C65.2467 12.8906 65.9428 12.8206 66.2464 12.7153L65.8893 10.7861C65.7286 10.8211 65.2824 10.8739 64.9433 10.8739C64.3721 10.8739 63.9972 10.716 63.7652 10.4528C63.5688 10.2248 63.4796 9.90915 63.4796 9.38292V6.13844H66.3351L69.4129 12.7153H71.0194L75 4.20918H72.5903L70.2162 9.40055L67.8421 4.20918H63.4796ZM58.2589 8.37054C58.2589 9.66499 57.2096 10.7143 55.9152 10.7143C54.6207 10.7143 53.5714 9.66499 53.5714 8.37054C53.5714 7.07608 54.6207 6.02679 55.9152 6.02679C57.2096 6.02679 58.2589 7.07608 58.2589 8.37054Z" fill="white"/>
</svg>
