<svg width="1107" height="145" viewBox="0 0 1107 145" fill="none" xmlns="http://www.w3.org/2000/svg">
<path d="M276.448 143.417V46.9209H301.317V54.6809C308.679 48.7129 317.831 44.9319 328.575 44.9319C341.905 44.9319 354.041 50.9029 362 60.4519C368.367 68.0129 371.948 77.7609 371.948 94.2749V143.417H346.083V92.2849C346.083 82.7359 343.895 77.7609 340.313 74.1799C336.931 70.7989 331.757 68.8069 325.788 68.8069C314.845 68.8069 305.893 75.7719 302.312 80.7469V143.417H276.448Z" fill="#191413"/>
<path d="M554.264 82.7359C553.468 74.1799 545.708 65.8239 535.164 65.8239C524.42 65.8239 515.667 73.9799 514.472 82.7359H554.264ZM578.339 128.099C568.987 139.24 553.667 145.408 538.745 145.408C509.896 145.408 488.209 125.511 488.209 95.2689C488.209 68.4109 506.513 44.9319 535.164 44.9319C561.824 44.9319 580.725 67.4159 580.725 94.2749C580.725 96.8609 580.527 99.4479 580.128 101.637H513.279C514.672 115.165 525.615 124.517 539.341 124.517C550.285 124.517 559.039 118.348 563.615 113.373L578.339 128.099Z" fill="#191413"/>
<path d="M229.545 80.7469C224.173 73.5829 215.619 68.8079 205.669 68.8079C190.548 68.8079 180.799 81.3429 180.799 95.2689C180.799 110.391 191.743 121.532 206.267 121.532C216.015 121.532 224.571 116.757 229.545 109.595V80.7469ZM255.409 143.419H230.54V135.659C222.581 142.423 213.428 145.408 203.68 145.408C189.355 145.408 175.825 139.041 167.269 129.093C159.708 120.34 154.935 108.403 154.935 95.2689C154.935 66.8169 176.024 44.9319 202.288 44.9319C213.231 44.9319 222.98 48.5149 230.54 54.6829V46.9209H255.409V143.419Z" fill="#191413"/>
<path d="M482.287 123.72C470.947 138.841 456.62 145.408 438.516 145.408C408.672 145.408 386.787 123.124 386.787 95.2689C386.787 67.2159 409.268 44.9319 438.715 44.9319C455.427 44.9319 470.348 52.6909 479.303 64.2319L460.999 80.3479C455.825 73.5839 448.065 68.8049 438.715 68.8049C423.792 68.8049 412.651 80.5449 412.651 95.2689C412.651 110.391 423.593 121.532 439.311 121.532C449.856 121.532 458.212 115.165 462.391 108.799L482.287 123.72Z" fill="#191413"/>
<path d="M150.957 69.8029C149.167 69.2049 145.388 68.8069 141.607 68.8069C130.265 68.8069 121.313 76.9649 118.129 82.7349V143.417H92.2637V46.9209H117.135V56.6709C122.904 49.5079 133.449 44.9319 145.188 44.9319C148.968 44.9319 151.156 45.3289 153.941 45.7279L150.957 69.8029Z" fill="#191413"/>
<path d="M76.3441 24.0427C74.1551 23.4467 70.9721 23.0467 68.5851 23.0467C62.2191 23.0467 57.2441 24.8387 54.0611 28.6187C51.8721 31.404 50.4801 34.984 50.4801 43.939V46.921H80.3241V68.8071H50.4801V143.417H24.6151V68.8071H-0.254883V46.921H24.6151V42.944C24.6151 27.424 28.1961 18.0733 34.9601 11.5067C41.7251 4.94274 51.8721 0.166748 65.0041 0.166748C70.1761 0.166748 74.9521 0.565348 80.3241 1.95875L76.3441 24.0427Z" fill="#191413"/>
<path d="M657.875 95.1709C657.875 109.725 646.076 121.525 631.52 121.525C616.964 121.525 605.164 109.725 605.164 95.1709C605.164 80.6149 616.964 68.8149 631.52 68.8149C646.076 68.8149 657.875 80.6149 657.875 95.1709Z" fill="#191413"/>
<path d="M715.414 46.921V20.0627H689.547V46.921H664.688V68.8071H689.547V102.632C689.547 116.36 691.737 124.915 696.711 131.48C703.276 140.233 714.616 145.408 730.136 145.408C735.109 145.408 742.869 144.611 746.253 143.417L742.272 121.532C740.483 121.929 735.509 122.528 731.729 122.528C725.362 122.528 721.181 120.736 718.595 117.751C716.408 115.165 715.414 111.584 715.414 105.615V68.8071H747.243L781.547 143.417H799.453L843.821 46.921H816.964L790.5 105.813L764.039 46.921H715.414Z" fill="#191413"/>
<path d="M974.74 76.907V111.796C967.619 123.752 955.91 130.877 943.3 130.877C936.41 130.877 929.689 128.651 923.339 124.273C914.619 118.135 909.419 107.251 909.419 95.16C909.419 83.752 913.94 73.483 921.8 66.995C927.71 62.196 935.469 59.445 943.099 59.445C958.479 59.445 970.31 69.735 974.74 76.907ZM975.14 57.175C966.58 49.305 955.06 44.865 942.89 44.865C931.81 44.865 920.62 48.801 912.19 55.684C900.77 65.339 894.229 79.728 894.229 95.16C894.229 112.215 901.71 127.235 914.75 136.361C923.24 142.396 932.91 145.456 943.5 145.456C955.89 145.456 967.37 140.807 975.14 132.825V143.417H989.93V46.904H975.14V57.175Z" fill="#191413"/>
<path d="M862.232 8.05469V143.417H877.423V8.05469H862.232Z" fill="#191413"/>
<path d="M1077.41 124.261C1071.05 128.651 1064.33 130.877 1057.43 130.877C1044.83 130.877 1033.11 123.752 1026 111.796V76.907C1030.43 69.735 1042.25 59.445 1057.64 59.445C1065.27 59.445 1073.03 62.196 1078.92 66.985C1086.8 73.483 1091.32 83.752 1091.32 95.16C1091.32 107.251 1086.11 118.135 1077.41 124.261ZM1088.53 55.663C1080.11 48.801 1068.93 44.865 1057.84 44.865C1045.85 44.865 1034.7 49.1 1026 56.879V8.05469H1010.81V143.417H1025.59V132.825C1033.37 140.807 1044.85 145.456 1057.23 145.456C1067.82 145.456 1077.5 142.396 1085.97 136.368C1099.02 127.235 1106.51 112.215 1106.51 95.16C1106.51 79.728 1099.96 65.34 1088.53 55.663Z" fill="#191413"/>
</svg>
