<svg width="32" height="32" viewBox="0 0 32 32" fill="none" xmlns="http://www.w3.org/2000/svg">
<path d="M16 6.03317C15.517 6.03317 15.125 5.64117 15.125 5.15817V2.875C15.125 2.392 15.517 2 16 2C16.483 2 16.875 2.392 16.875 2.875V5.15817C16.875 5.64117 16.483 6.03317 16 6.03317Z" fill="#0023FF"/>
<path d="M23.6647 9.20883C23.4407 9.20883 23.2167 9.12367 23.0464 8.95217C22.7046 8.61033 22.7046 8.05617 23.0464 7.71433L24.6611 6.09967C25.0029 5.75783 25.5571 5.75783 25.8989 6.09967C26.2407 6.4415 26.2407 6.99567 25.8989 7.3375L24.2842 8.95217C24.1127 9.1225 23.8887 9.20883 23.6647 9.20883Z" fill="#0023FF"/>
<path d="M29.1259 16.875H26.8428C26.3598 16.875 25.9678 16.483 25.9678 16C25.9678 15.517 26.3598 15.125 26.8428 15.125H29.1259C29.6089 15.125 30.0009 15.517 30.0009 16C30.0009 16.483 29.6089 16.875 29.1259 16.875Z" fill="#0023FF"/>
<path d="M25.2794 26.1558C25.0554 26.1558 24.8314 26.0707 24.6611 25.8992L23.0464 24.2845C22.7046 23.9427 22.7046 23.3885 23.0464 23.0467C23.3882 22.7048 23.9424 22.7048 24.2842 23.0467L25.8989 24.6613C26.2407 25.0032 26.2407 25.5573 25.8989 25.8992C25.7274 26.0707 25.5034 26.1558 25.2794 26.1558Z" fill="#0023FF"/>
<path d="M6.71943 26.1558C6.49543 26.1558 6.27143 26.0707 6.1011 25.8992C5.75927 25.5573 5.75927 25.0032 6.1011 24.6613L7.71577 23.0467C8.0576 22.7048 8.61177 22.7048 8.9536 23.0467C9.29543 23.3885 9.29543 23.9427 8.9536 24.2845L7.33893 25.8992C7.16743 26.0707 6.94343 26.1558 6.71943 26.1558Z" fill="#0023FF"/>
<path d="M5.15817 16.875H2.875C2.392 16.875 2 16.483 2 16C2 15.517 2.392 15.125 2.875 15.125H5.15817C5.64117 15.125 6.03317 15.517 6.03317 16C6.03317 16.483 5.64117 16.875 5.15817 16.875Z" fill="#0023FF"/>
<path d="M8.3341 9.20883C8.1101 9.20883 7.8861 9.12367 7.71577 8.95217L6.1011 7.3375C5.75927 6.99567 5.75927 6.4415 6.1011 6.09967C6.44293 5.75783 6.9971 5.75783 7.33893 6.09967L8.9536 7.71433C9.29543 8.05617 9.29543 8.61033 8.9536 8.95217C8.78093 9.1225 8.5581 9.20883 8.3341 9.20883Z" fill="#0023FF"/>
<path d="M19.5 26.5V27.9583C19.5 29.0783 18.5783 30 17.4583 30H14.5417C13.5617 30 12.5 29.2533 12.5 27.62V26.5H19.5Z" fill="#0023FF"/>
<path d="M21.1442 9.65333C19.2309 8.10166 16.7109 7.495 14.2492 8.02C11.1576 8.66166 8.64922 11.1817 8.00755 14.2733C7.35422 17.4467 8.54422 20.5967 11.0876 22.5217C11.7759 23.035 12.2542 23.8283 12.4176 24.75V24.7617C12.4409 24.75 12.4759 24.75 12.4992 24.75H19.4992C19.5226 24.75 19.5342 24.75 19.5576 24.7617V24.75C19.7209 23.8633 20.2459 23.0467 21.0509 22.4167C23.0226 20.8533 24.1659 18.52 24.1659 16C24.1659 13.5267 23.0692 11.2167 21.1442 9.65333ZM20.3742 16.5833C19.8959 16.5833 19.4992 16.1867 19.4992 15.7083C19.4992 13.935 18.0642 12.5 16.2909 12.5C15.8126 12.5 15.4159 12.1033 15.4159 11.625C15.4159 11.1467 15.8126 10.75 16.2909 10.75C19.0209 10.75 21.2492 12.9783 21.2492 15.7083C21.2492 16.1867 20.8526 16.5833 20.3742 16.5833Z" fill="#0023FF"/>
<path d="M12.418 24.75H12.4996C12.4763 24.75 12.4413 24.75 12.418 24.7617V24.75Z" fill="#0023FF"/>
<path d="M19.5583 24.75V24.7617C19.535 24.75 19.5233 24.75 19.5 24.75H19.5583Z" fill="#0023FF"/>
</svg>
