<svg width="95" height="33" viewBox="0 0 95 33" fill="none" xmlns="http://www.w3.org/2000/svg">
<rect x="0.5" y="0.5" width="94" height="32" rx="4.5" stroke="#A6A6A6"/>
<path d="M23.2066 20.2684C22.9552 20.8493 22.6577 21.3839 22.313 21.8755C21.8431 22.5456 21.4584 23.0094 21.1619 23.267C20.7023 23.6898 20.2098 23.9063 19.6825 23.9186C19.3039 23.9186 18.8474 23.8109 18.3159 23.5923C17.7827 23.3747 17.2927 23.267 16.8447 23.267C16.3748 23.267 15.8709 23.3747 15.3319 23.5923C14.792 23.8109 14.3571 23.9248 14.0246 23.9361C13.5189 23.9576 13.0149 23.7349 12.5118 23.267C12.1906 22.9868 11.789 22.5066 11.3078 21.8262C10.7916 21.0996 10.3671 20.2571 10.0346 19.2966C9.67851 18.2591 9.5 17.2545 9.5 16.2818C9.5 15.1677 9.74069 14.2067 10.2228 13.4015C10.6017 12.7547 11.1057 12.2444 11.7366 11.8699C12.3674 11.4953 13.049 11.3044 13.7831 11.2922C14.1848 11.2922 14.7115 11.4165 15.366 11.6607C16.0187 11.9058 16.4378 12.0301 16.6216 12.0301C16.7589 12.0301 17.2245 11.8847 18.0138 11.5951C18.7601 11.3264 19.3901 11.2152 19.9061 11.259C21.3045 11.3719 22.3551 11.9232 23.0537 12.9166C21.8031 13.6746 21.1845 14.7362 21.1968 16.098C21.208 17.1588 21.5928 18.0416 22.3489 18.7425C22.6916 19.0678 23.0742 19.3192 23.5 19.4977C23.4077 19.7656 23.3102 20.0221 23.2066 20.2684ZM19.9995 7.64509C19.9995 8.47653 19.6958 9.25285 19.0905 9.97139C18.36 10.8256 17.4765 11.3192 16.5184 11.2413C16.5062 11.1416 16.4991 11.0366 16.4991 10.9263C16.4991 10.1281 16.8465 9.27388 17.4634 8.57545C17.7713 8.22182 18.1631 7.92778 18.6381 7.69322C19.112 7.46216 19.5604 7.33438 19.982 7.3125C19.9944 7.42365 19.9995 7.53481 19.9995 7.64508V7.64509Z" fill="#232323"/>
<path d="M32.74 21L33.508 19.14H36.748L37.516 21H39.232L35.752 12.6H34.552L31.072 21H32.74ZM35.152 15.12L36.16 17.7H34.108L35.152 15.12ZM40.2206 15.18V23.7H41.7806V20.592C42.2006 20.916 42.7526 21.12 43.4246 21.12C45.0086 21.12 46.2806 19.86 46.2806 18.084C46.2806 16.32 45.0206 15.06 43.4486 15.06C42.7766 15.06 42.1646 15.276 41.6606 15.684V15.18H40.2206ZM44.7206 18.084C44.7206 19.044 44.0246 19.704 43.1846 19.704C42.5966 19.704 42.1166 19.44 41.7806 19.02V17.16C42.1646 16.716 42.6566 16.476 43.2086 16.476C44.0366 16.476 44.7206 17.148 44.7206 18.084ZM47.7089 15.18V23.7H49.2689V20.592C49.6889 20.916 50.2409 21.12 50.9129 21.12C52.4969 21.12 53.7689 19.86 53.7689 18.084C53.7689 16.32 52.5089 15.06 50.9369 15.06C50.2649 15.06 49.6529 15.276 49.1489 15.684V15.18H47.7089ZM52.2089 18.084C52.2089 19.044 51.5129 19.704 50.6729 19.704C50.0849 19.704 49.6049 19.44 49.2689 19.02V17.16C49.6529 16.716 50.1449 16.476 50.6969 16.476C51.5249 16.476 52.2089 17.148 52.2089 18.084ZM57.5634 20.28C58.2594 20.868 59.1114 21.12 59.9394 21.12C61.0794 21.12 62.2194 20.472 62.2194 19.296C62.2194 17.256 59.3994 17.532 59.3994 16.812C59.3994 16.512 59.7594 16.38 60.1914 16.38C60.6114 16.38 61.0074 16.548 61.3194 16.752L62.0154 15.696C61.5834 15.348 60.8274 15.06 60.0714 15.06C58.9194 15.06 57.8394 15.756 57.8394 16.872C57.8394 18.744 60.6594 18.432 60.6594 19.308C60.6594 19.596 60.3354 19.8 59.9154 19.8C59.3274 19.8 58.7154 19.56 58.3194 19.26L57.5634 20.28ZM65.8329 16.44H67.5729V15.18H65.8329V13.32H64.2729V15.18H62.8929V16.44H64.2729V19.008C64.2729 19.728 64.4409 20.172 64.7289 20.508C65.1369 20.976 65.7369 21.12 66.3009 21.12C66.8889 21.12 67.3569 20.964 67.7529 20.688L67.2489 19.584C67.0329 19.692 66.8049 19.776 66.5289 19.776C66.3009 19.776 66.1089 19.716 65.9889 19.596C65.8809 19.488 65.8329 19.296 65.8329 18.984V16.44ZM70.0132 18.096C70.0132 17.22 70.6012 16.476 71.5132 16.476C72.4252 16.476 73.0132 17.22 73.0132 18.096C73.0132 18.972 72.4252 19.704 71.5132 19.704C70.6012 19.704 70.0132 18.972 70.0132 18.096ZM68.4532 18.096C68.4532 19.776 69.7612 21.12 71.5132 21.12C73.2652 21.12 74.5732 19.776 74.5732 18.096C74.5732 16.416 73.2652 15.06 71.5132 15.06C69.7612 15.06 68.4532 16.416 68.4532 18.096ZM79.6462 15.144C79.4782 15.108 79.3582 15.096 79.1782 15.096C78.4702 15.096 77.8342 15.336 77.4862 15.768V15.18H75.9862V21H77.5462V17.34C77.9182 16.764 78.5302 16.512 79.1062 16.512C79.3342 16.512 79.4902 16.524 79.6462 16.548V15.144ZM84.8849 19.164C84.5849 19.452 84.0569 19.8 83.3969 19.8C82.5689 19.8 81.8969 19.296 81.8129 18.48H85.8569C85.8809 18.348 85.8929 18.192 85.8929 18.036C85.8929 16.416 84.8129 15.06 83.1449 15.06C81.3809 15.06 80.3129 16.476 80.3129 18.096C80.3129 19.908 81.5969 21.12 83.3129 21.12C84.2489 21.12 85.1609 20.748 85.7489 20.076L84.8849 19.164ZM81.8609 17.4C81.9329 16.836 82.4369 16.344 83.1449 16.344C83.8409 16.344 84.2849 16.848 84.3329 17.4H81.8609Z" fill="black"/>
</svg>
