<svg width="28" height="28" viewBox="0 0 28 28" fill="none" xmlns="http://www.w3.org/2000/svg">
<mask id="mask0" mask-type="alpha" maskUnits="userSpaceOnUse" x="4" y="6" width="20" height="16">
<path d="M7.40656 12.9467H22.9998C23.5522 12.9467 24 13.3946 24 13.9469C24 14.4993 23.5522 14.9472 22.9998 14.9472H7.40656L12.7077 20.2483C13.0449 20.6475 13.0179 21.239 12.6458 21.6059C12.2736 21.9728 11.6818 21.9914 11.2874 21.6485L4.28592 14.6471C3.90469 14.2582 3.90469 13.6357 4.28592 13.2468L11.2874 6.24536C11.6818 5.90249 12.2736 5.92105 12.6458 6.28796C13.0179 6.65486 13.0449 7.24642 12.7077 7.64565L7.39656 12.9467H7.40656Z" fill="white"/>
</mask>
<g mask="url(#mask0)">
<rect width="28" height="28" fill="#5F7081"/>
</g>
</svg>
