<svg width="80" height="219" viewBox="0 0 80 219" fill="none" xmlns="http://www.w3.org/2000/svg">
  <g filter="url(#filter0_d_110_315)">
    <circle cx="83.5" cy="109.5" r="53.5" fill="white"/>
  </g>
  <path fill-rule="evenodd" clip-rule="evenodd" d="M59.969 97.7198C60.3368 97.352 60.9332 97.352 61.3011 97.7198L71.8109 108.303C71.9328 108.426 71.9936 108.586 71.9933 108.746C71.9937 108.907 71.933 109.068 71.8109 109.191L61.3011 119.774C60.9332 120.142 60.3368 120.142 59.969 119.774C59.6012 119.406 59.6012 118.81 59.969 118.442L68.7829 109.689H50.3306C49.8104 109.689 49.3887 109.267 49.3887 108.747C49.3887 108.227 49.8104 107.805 50.3306 107.805H68.7829L59.969 99.0519C59.6012 98.6841 59.6012 98.0877 59.969 97.7198Z" fill="#232323"/>
  <defs>
    <filter id="filter0_d_110_315" x="-32.5325" y="0.415585" width="218.169" height="218.169" filterUnits="userSpaceOnUse" color-interpolation-filters="sRGB">
      <feFlood flood-opacity="0" result="BackgroundImageFix"/>
      <feColorMatrix in="SourceAlpha" type="matrix" values="0 0 0 0 0 0 0 0 0 0 0 0 0 0 0 0 0 0 127 0" result="hardAlpha"/>
      <feOffset dx="-6.94805"/>
      <feGaussianBlur stdDeviation="27.7922"/>
      <feColorMatrix type="matrix" values="0 0 0 0 0 0 0 0 0 0 0 0 0 0 0 0 0 0 0.1 0"/>
      <feBlend mode="normal" in2="BackgroundImageFix" result="effect1_dropShadow_110_315"/>
      <feBlend mode="normal" in="SourceGraphic" in2="effect1_dropShadow_110_315" result="shape"/>
    </filter>
  </defs>
</svg>
