<svg width="28" height="28" viewBox="0 0 28 28" fill="none" xmlns="http://www.w3.org/2000/svg">
<mask id="mask0" mask-type="alpha" maskUnits="userSpaceOnUse" x="5" y="7" width="18" height="14">
<path fill-rule="evenodd" clip-rule="evenodd" d="M6 7H22C22.5523 7 23 7.44772 23 8C23 8.55228 22.5523 9 22 9H6C5.44772 9 5 8.55228 5 8C5 7.44772 5.44772 7 6 7ZM6 13H22C22.5523 13 23 13.4477 23 14C23 14.5523 22.5523 15 22 15H6C5.44772 15 5 14.5523 5 14C5 13.4477 5.44772 13 6 13ZM22 19H6C5.44772 19 5 19.4477 5 20C5 20.5523 5.44772 21 6 21H22C22.5523 21 23 20.5523 23 20C23 19.4477 22.5523 19 22 19Z" fill="white"/>
</mask>
<g mask="url(#mask0)">
<rect width="28" height="28" fill="#48484D"/>
</g>
</svg>
