<svg width="37" height="38" viewBox="0 0 37 38" fill="none" xmlns="http://www.w3.org/2000/svg">
<path fill-rule="evenodd" clip-rule="evenodd" d="M18.5004 34.8333C27.2442 34.8333 34.3332 27.7451 34.3332 19C34.3332 10.2548 27.2442 3.16666 18.5004 3.16666C9.75542 3.16666 2.6665 10.2549 2.6665 19C2.6665 27.745 9.75542 34.8333 18.5004 34.8333ZM18.5004 37.3333C28.6248 37.3333 36.8332 29.1259 36.8332 19C36.8332 8.8741 28.6248 0.666656 18.5004 0.666656C8.37484 0.666656 0.166504 8.8741 0.166504 19C0.166504 29.1259 8.37484 37.3333 18.5004 37.3333Z" fill="#232323"/>
<path d="M8.49984 12.5382L9.64594 13.5396L17.8057 20.0675C18.2115 20.3921 18.7882 20.3921 19.194 20.0675L27.3538 13.5396L28.4998 12.5382V25.6667C28.4998 26.2803 28.001 26.7778 27.3874 26.7778H9.61233C8.99868 26.7778 8.49984 26.2803 8.49984 25.6667V12.5382Z" fill="#232323"/>
<path d="M27.5135 11.2292C27.4725 11.2246 27.4309 11.2222 27.3887 11.2222H9.61095C9.56878 11.2222 9.52716 11.2246 9.48622 11.2292L10.6871 12.2382L18.4999 18.4884L26.3126 12.2382L27.5135 11.2292Z" fill="#232323"/>
</svg>
