<svg width="32" height="32" viewBox="0 0 32 32" fill="none" xmlns="http://www.w3.org/2000/svg">
<path fill-rule="evenodd" clip-rule="evenodd" d="M28.6663 16C28.6663 22.9961 22.9951 28.6667 16.0001 28.6667C9.00414 28.6667 3.33301 22.9961 3.33301 16C3.33301 9.00399 9.00414 3.33336 16.0001 3.33336C22.9951 3.33336 28.6663 9.00391 28.6663 16ZM30.6663 16C30.6663 24.1007 24.0997 30.6667 16.0001 30.6667C7.89968 30.6667 1.33301 24.1007 1.33301 16C1.33301 7.89931 7.89968 1.33336 16.0001 1.33336C24.0997 1.33336 30.6663 7.89931 30.6663 16ZM16.7599 16.6422V23.3333H14.1673V16.6422H11.9997V14.0358H14.1673V12.1121C14.1673 9.8811 15.4793 8.66665 17.3969 8.66665C18.3141 8.66665 19.1034 8.73666 19.333 8.76913V11.1006H18.0045C16.9622 11.1006 16.7599 11.615 16.7599 12.3698V14.0358H19.2461L18.9217 16.6422H16.7599Z" fill="#E3E6EC"/>
</svg>
