<svg width="37" height="38" viewBox="0 0 37 38" fill="none" xmlns="http://www.w3.org/2000/svg">
<path fill-rule="evenodd" clip-rule="evenodd" d="M34.3332 19C34.3332 27.7451 27.2442 34.8333 18.5004 34.8333C9.75542 34.8333 2.6665 27.745 2.6665 19C2.6665 10.2549 9.75542 3.16666 18.5004 3.16666C27.2442 3.16666 34.3332 10.2548 34.3332 19ZM36.8332 19C36.8332 29.1259 28.6248 37.3333 18.5004 37.3333C8.37484 37.3333 0.166504 29.1259 0.166504 19C0.166504 8.8741 8.37484 0.666656 18.5004 0.666656C28.6248 0.666656 36.8332 8.8741 36.8332 19ZM19.4502 19.8028V28.1667H16.2094V19.8028H13.4998V16.5447H16.2094V14.1402C16.2094 11.3514 17.8493 9.83332 20.2463 9.83332C21.3929 9.83332 22.3796 9.92083 22.6665 9.96141V12.8758H21.0058C19.7029 12.8758 19.4502 13.5188 19.4502 14.4623V16.5447H22.5578L22.1524 19.8028H19.4502Z" fill="#232323"/>
</svg>
