<svg width="32" height="32" viewBox="0 0 32 32" fill="none" xmlns="http://www.w3.org/2000/svg">
<path d="M7.33333 14.3333C7.33333 13.781 7.78105 13.3333 8.33333 13.3333H17C17.5523 13.3333 18 13.781 18 14.3333C18 14.8855 17.5523 15.3333 17 15.3333H8.33333C7.78105 15.3333 7.33333 14.8855 7.33333 14.3333Z" fill="#232323"/>
<path d="M7.33333 17.6666C7.33333 17.1143 7.78105 16.6666 8.33333 16.6666H14.3333C14.8856 16.6666 15.3333 17.1143 15.3333 17.6666C15.3333 18.2189 14.8856 18.6666 14.3333 18.6666H8.33333C7.78105 18.6666 7.33333 18.2189 7.33333 17.6666Z" fill="#232323"/>
<path fill-rule="evenodd" clip-rule="evenodd" d="M7.16064 5.33325C6.44293 5.33325 5.78024 5.71782 5.42416 6.34097L3.59685 9.53877C3.42416 9.84096 3.33333 10.183 3.33333 10.531V11.1666C3.33333 11.1793 3.33476 11.1917 3.33746 11.2036C3.33472 11.2465 3.33333 11.2897 3.33333 11.3333V24.6666C3.33333 25.7712 4.22876 26.6666 5.33333 26.6666H26.6667C27.7712 26.6666 28.6667 25.7712 28.6667 24.6666V11.3333C28.6667 10.2287 27.7712 9.33325 26.6667 9.33325H17.3333V7.33325C17.3333 6.22868 16.4379 5.33325 15.3333 5.33325H7.16064ZM6 11.3333C5.63181 11.3333 5.33333 11.6317 5.33333 11.9999V23.9999C5.33333 24.3681 5.63181 24.6666 6 24.6666H26C26.3682 24.6666 26.6667 24.3681 26.6667 23.9999V11.9999C26.6667 11.6317 26.3682 11.3333 26 11.3333H6ZM7.41202 7.33325C7.15951 7.33325 6.92866 7.47592 6.81574 7.70178L6 9.33325H15.3333V7.99992C15.3333 7.63173 15.0349 7.33325 14.6667 7.33325H7.41202Z" fill="#232323"/>
</svg>
