<svg width="108" height="33" viewBox="0 0 108 33" fill="none" xmlns="http://www.w3.org/2000/svg">
<rect x="0.5" y="0.5" width="107" height="32" rx="4.5" stroke="#A6A6A6"/>
<g clip-path="url(#clip0)">
<path d="M20.5914 18.1564C22.2366 17.2462 23.4946 16.5527 23.6021 16.4985C23.9462 16.3143 24.3011 15.8267 23.6021 15.4474C23.3763 15.3283 22.1613 14.6564 20.5914 13.7896L18.4301 15.9784L20.5914 18.1564Z" fill="#3F3F3F"/>
<path d="M18.4301 15.9783L11.5269 22.9891C11.6882 23.0108 11.871 22.9674 12.086 22.8482C12.5376 22.599 17.3333 19.9551 20.5914 18.1563L18.4301 15.9783Z" fill="#252525"/>
<path d="M18.4301 15.9783L20.5914 13.7894C20.5914 13.7894 12.5699 9.37923 12.086 9.11916C11.9032 9.01081 11.6989 8.9783 11.5161 9.01081L18.4301 15.9783Z" fill="#5B5B5B"/>
<path d="M18.4301 15.9777L11.5161 9.01025C11.2366 9.07527 11 9.3245 11 9.83378C11 10.6465 11 21.4824 11 22.1651C11 22.631 11.1828 22.9669 11.5269 22.9994L18.4301 15.9777Z" fill="black"/>
</g>
<path d="M39.124 13.92C38.368 13.092 37.228 12.48 35.896 12.48C33.364 12.48 31.504 14.304 31.504 16.8C31.504 19.296 33.328 21.12 35.92 21.12C37.372 21.12 38.596 20.472 39.364 19.5V15.84H35.584V17.22H37.804V19.056C37.252 19.488 36.676 19.68 35.92 19.68C34.192 19.68 33.124 18.384 33.124 16.8C33.124 15.216 34.228 13.92 35.908 13.92C36.844 13.92 37.552 14.34 38.14 14.904L39.124 13.92ZM42.0523 18.096C42.0523 17.22 42.6403 16.476 43.5523 16.476C44.4643 16.476 45.0523 17.22 45.0523 18.096C45.0523 18.972 44.4643 19.704 43.5523 19.704C42.6403 19.704 42.0523 18.972 42.0523 18.096ZM40.4923 18.096C40.4923 19.776 41.8003 21.12 43.5523 21.12C45.3043 21.12 46.6123 19.776 46.6123 18.096C46.6123 16.416 45.3043 15.06 43.5523 15.06C41.8003 15.06 40.4923 16.416 40.4923 18.096ZM49.1773 18.096C49.1773 17.22 49.7653 16.476 50.6773 16.476C51.5893 16.476 52.1773 17.22 52.1773 18.096C52.1773 18.972 51.5893 19.704 50.6773 19.704C49.7653 19.704 49.1773 18.972 49.1773 18.096ZM47.6173 18.096C47.6173 19.776 48.9253 21.12 50.6773 21.12C52.4293 21.12 53.7373 19.776 53.7373 18.096C53.7373 16.416 52.4293 15.06 50.6773 15.06C48.9253 15.06 47.6173 16.416 47.6173 18.096ZM59.3743 15.18V15.684C58.8703 15.276 58.2583 15.06 57.5863 15.06C56.0143 15.06 54.7543 16.32 54.7543 18.084C54.7543 19.86 56.0263 21.12 57.6103 21.12C58.2823 21.12 58.8343 20.916 59.2543 20.592C59.2543 21.348 59.1343 21.708 58.8943 21.972C58.6303 22.284 58.2103 22.44 57.7063 22.44C56.7463 22.44 56.1583 21.936 55.8463 21.66L54.9103 22.62C55.4863 23.292 56.5663 23.82 57.7063 23.82C58.8223 23.82 59.7583 23.388 60.2863 22.656C60.6343 22.164 60.8143 21.54 60.8143 20.496V15.18H59.3743ZM56.3143 18.084C56.3143 17.148 56.9983 16.476 57.8263 16.476C58.3783 16.476 58.8703 16.716 59.2543 17.16V19.02C58.9183 19.44 58.4383 19.704 57.8503 19.704C57.0103 19.704 56.3143 19.044 56.3143 18.084ZM64.1986 12.48H62.6386V21H64.1986V12.48ZM70.2013 19.164C69.9013 19.452 69.3733 19.8 68.7133 19.8C67.8853 19.8 67.2133 19.296 67.1293 18.48H71.1733C71.1973 18.348 71.2093 18.192 71.2093 18.036C71.2093 16.416 70.1293 15.06 68.4613 15.06C66.6973 15.06 65.6293 16.476 65.6293 18.096C65.6293 19.908 66.9133 21.12 68.6293 21.12C69.5653 21.12 70.4773 20.748 71.0653 20.076L70.2013 19.164ZM67.1773 17.4C67.2493 16.836 67.7533 16.344 68.4613 16.344C69.1573 16.344 69.6013 16.848 69.6493 17.4H67.1773ZM77.2452 16.164V14.016H78.5652C79.2492 14.016 79.5492 14.16 79.7412 14.388C79.9092 14.58 80.0052 14.808 80.0052 15.084C80.0052 15.36 79.9092 15.6 79.7412 15.792C79.5492 16.02 79.2492 16.164 78.5652 16.164H77.2452ZM78.7692 17.58C79.9452 17.58 80.6652 17.196 81.1212 16.596C81.4452 16.176 81.6252 15.648 81.6252 15.084C81.6252 14.52 81.4452 14.004 81.1212 13.584C80.6652 12.984 79.9452 12.6 78.7692 12.6H75.6252V21H77.2452V17.58H78.7692ZM84.4017 12.48H82.8417V21H84.4017V12.48ZM90.4524 15.18V15.684C89.9484 15.276 89.3364 15.06 88.6644 15.06C87.0924 15.06 85.8324 16.32 85.8324 18.084C85.8324 19.86 87.1044 21.12 88.6884 21.12C89.4204 21.12 90.0084 20.868 90.4524 20.496V21H91.8924V15.18H90.4524ZM87.3924 18.084C87.3924 17.148 88.0764 16.476 88.9044 16.476C89.4564 16.476 89.9484 16.716 90.3324 17.16V19.02C89.9964 19.44 89.5164 19.704 88.9284 19.704C88.0884 19.704 87.3924 19.044 87.3924 18.084ZM95.7207 23.7L99.6687 15.18H98.0607L96.4167 18.804L94.6167 15.18H92.9487L95.6127 20.472L94.1127 23.7H95.7207Z" fill="black"/>
<defs>
<clipPath id="clip0">
<rect width="13" height="14" fill="white" transform="translate(11 9)"/>
</clipPath>
</defs>
</svg>
