<svg width="32" height="32" viewBox="0 0 32 32" fill="none" xmlns="http://www.w3.org/2000/svg">
<path fill-rule="evenodd" clip-rule="evenodd" d="M16.0001 28.6667C22.9951 28.6667 28.6663 22.9961 28.6663 16C28.6663 9.00391 22.9951 3.33336 16.0001 3.33336C9.00414 3.33336 3.33301 9.00399 3.33301 16C3.33301 22.9961 9.00414 28.6667 16.0001 28.6667ZM16.0001 30.6667C24.0997 30.6667 30.6663 24.1007 30.6663 16C30.6663 7.89931 24.0997 1.33336 16.0001 1.33336C7.89968 1.33336 1.33301 7.89931 1.33301 16C1.33301 24.1007 7.89968 30.6667 16.0001 30.6667Z" fill="#E3E6EC"/>
<path d="M19.0534 11.8272C19.0534 12.445 19.5561 12.9465 20.1727 12.9465C20.7905 12.9465 21.292 12.445 21.292 11.8272C21.292 11.2094 20.7905 10.7067 20.1727 10.7067C19.5561 10.7067 19.0534 11.2094 19.0534 11.8272Z" fill="#E3E6EC"/>
<path fill-rule="evenodd" clip-rule="evenodd" d="M11.8028 16.0004C11.8028 13.6867 13.6853 11.803 15.9991 11.803C18.3128 11.803 20.1953 13.6867 20.1953 16.0004C20.1953 18.3142 18.3128 20.1967 15.9991 20.1967C13.6853 20.1967 11.8028 18.3142 11.8028 16.0004ZM13.575 16.0003C13.575 17.3376 14.6616 18.4242 15.999 18.4242C17.3364 18.4242 18.423 17.3376 18.423 16.0003C18.423 14.6641 17.3364 13.5751 15.999 13.5751C14.6616 13.5751 13.575 14.6641 13.575 16.0003Z" fill="#E3E6EC"/>
<path fill-rule="evenodd" clip-rule="evenodd" d="M23.9524 12.768C23.9161 11.994 23.801 11.3907 23.5769 10.8129C23.354 10.2423 23.0645 9.7953 22.6344 9.36526C22.2044 8.93522 21.7574 8.64448 21.1868 8.4228C20.609 8.19869 20.0057 8.0824 19.2304 8.04727C18.397 8.00972 18.1196 8.00003 15.9997 8.00003C13.8797 8.00003 13.6023 8.00972 12.7677 8.04727C11.9924 8.0824 11.3891 8.19869 10.8125 8.4228C10.2407 8.64448 9.79374 8.93522 9.3637 9.36526C8.93487 9.7953 8.64413 10.2423 8.42124 10.8129C8.19713 11.3919 8.08205 11.994 8.04571 12.768C8.00815 13.6063 7.99967 13.8837 7.99967 16C7.99967 18.1163 8.00815 18.3949 8.04571 19.232C8.08205 20.0061 8.19713 20.6094 8.42124 21.1884C8.64413 21.759 8.93487 22.2048 9.3637 22.6348C9.79374 23.0648 10.2407 23.3556 10.8125 23.5773C11.3891 23.8026 11.9912 23.9189 12.7677 23.954C13.6072 23.9915 13.8858 24 15.9997 24C18.1135 24 18.3922 23.9915 19.2304 23.954C20.0057 23.9189 20.609 23.8026 21.1868 23.5773C21.7574 23.3556 22.2044 23.0648 22.6344 22.6348C23.0645 22.2048 23.354 21.7577 23.5769 21.1884C23.801 20.6106 23.9161 20.0073 23.9524 19.232C23.9912 18.3937 23.9997 18.1163 23.9997 16C23.9997 13.8849 23.9912 13.6063 23.9524 12.768ZM22.1825 19.1508C22.1486 19.8862 22.0275 20.2835 21.9257 20.5452C21.7937 20.8856 21.635 21.1278 21.3806 21.3822C21.1262 21.6366 20.8839 21.7953 20.5447 21.9261C20.2819 22.0279 19.8858 22.1502 19.1504 22.183C18.3291 22.2205 18.0832 22.229 15.9996 22.229C13.9148 22.229 13.6689 22.2205 12.8476 22.183C12.1123 22.1502 11.7162 22.0279 11.4533 21.9261C11.1141 21.7953 10.873 21.6366 10.6174 21.3822C10.363 21.1278 10.2043 20.8856 10.0723 20.5464C9.97055 20.2835 9.84941 19.8862 9.8167 19.1508C9.77794 18.3283 9.77067 18.0824 9.77067 16C9.77067 13.9189 9.77794 13.6717 9.8167 12.8492C9.84941 12.1139 9.97055 11.7178 10.0723 11.4537C10.2043 11.1145 10.363 10.8734 10.6174 10.6191C10.8718 10.3634 11.1141 10.206 11.4533 10.0751C11.7162 9.97217 12.1123 9.85103 12.8476 9.81711C13.6701 9.78077 13.9172 9.77229 15.9996 9.77229C18.0808 9.77229 18.3279 9.78077 19.1504 9.81711C19.8858 9.85103 20.2819 9.97217 20.5447 10.0751C20.8851 10.206 21.1262 10.3634 21.3806 10.6178C21.635 10.8734 21.7937 11.1145 21.9257 11.4537C22.0275 11.7178 22.1486 12.1139 22.1825 12.8492C22.2201 13.673 22.2274 13.9201 22.2274 16C22.2274 18.0812 22.2201 18.3271 22.1825 19.1508Z" fill="#E3E6EC"/>
</svg>
