<svg width="32" height="32" viewBox="0 0 32 32" fill="none" xmlns="http://www.w3.org/2000/svg">
<path fill-rule="evenodd" clip-rule="evenodd" d="M28.6663 16C28.6663 22.9961 22.9951 28.6667 16.0001 28.6667C9.00414 28.6667 3.33301 22.996 3.33301 16C3.33301 9.00396 9.00414 3.33333 16.0001 3.33333C22.9951 3.33333 28.6663 9.00388 28.6663 16ZM30.6663 16C30.6663 24.1007 24.0997 30.6667 16.0001 30.6667C7.89968 30.6667 1.33301 24.1007 1.33301 16C1.33301 7.89928 7.89968 1.33333 16.0001 1.33333C24.0997 1.33333 30.6663 7.89928 30.6663 16ZM10.695 8.99999C10.1907 8.99999 9.78208 9.14745 9.46906 9.44208C9.15607 9.73678 8.99967 10.1088 8.99967 10.5586C8.99967 11.002 9.15157 11.3728 9.45539 11.6705C9.75912 11.9682 10.1602 12.1171 10.6585 12.1171H10.6767C11.1872 12.1171 11.5989 11.9683 11.9118 11.6705C12.2247 11.3728 12.3781 11.0022 12.372 10.5586C12.366 10.1089 12.2109 9.73678 11.9072 9.44208C11.6035 9.14733 11.1993 8.99999 10.695 8.99999ZM19.5455 13.138C20.5844 13.138 21.4201 13.4829 22.0519 14.1726C22.6839 14.8621 22.9997 15.8722 22.9999 17.203V22.3798H20.0012V17.5492C20.0012 16.9111 19.8781 16.4113 19.6321 16.0498C19.386 15.6883 19.0015 15.5075 18.4791 15.5075C18.0962 15.5075 17.7757 15.6123 17.5174 15.8221C17.259 16.0317 17.0662 16.2913 16.9385 16.6013C16.8716 16.7837 16.8383 17.0298 16.8383 17.3396V22.3801H13.8396C13.8518 19.9556 13.8579 17.9899 13.8579 16.4829C13.8579 14.9761 13.8549 14.0768 13.8487 13.7851L13.8395 13.3475H16.8383V14.6319C16.954 14.4494 17.0726 14.2882 17.1938 14.1497C17.3214 14.0039 17.4931 13.846 17.7088 13.6758C17.9245 13.5057 18.1888 13.3735 18.5017 13.2793C18.8147 13.1851 19.1627 13.138 19.5455 13.138ZM9.17285 13.3477H12.1806V22.3801H9.17285V13.3477Z" fill="#E3E6EC"/>
</svg>
