<svg width="28" height="28" viewBox="0 0 28 28" fill="none" xmlns="http://www.w3.org/2000/svg">
<mask id="mask0" mask-type="alpha" maskUnits="userSpaceOnUse" x="4" y="5" width="20" height="20">
<path fill-rule="evenodd" clip-rule="evenodd" d="M18.3625 17.9385L23.7633 23.3493C24.1014 23.7496 24.0743 24.3427 23.7012 24.7105C23.3281 25.0784 22.7347 25.097 22.3393 24.7532L16.9441 19.3581C13.5987 21.9569 8.80924 21.5067 6.00665 18.3301C3.20405 15.1534 3.3543 10.3452 6.34976 7.34976C9.34523 4.3543 14.1534 4.20405 17.3301 7.00665C20.5049 9.80767 20.9564 14.5933 18.3625 17.9385ZM18.037 13.0203C18.037 16.3433 15.3431 19.0372 12.0201 19.0372C8.69704 19.0372 6.00318 16.3433 6.00318 13.0203C6.00318 9.69726 8.69704 7.0034 12.0201 7.0034C15.3431 7.0034 18.037 9.69726 18.037 13.0203Z" fill="white"/>
</mask>
<g mask="url(#mask0)">
<rect width="28" height="28" fill="#48484D"/>
</g>
</svg>
