<svg width="18" height="18" viewBox="0 0 18 18" fill="none" xmlns="http://www.w3.org/2000/svg">
<path fill-rule="evenodd" clip-rule="evenodd" d="M9.86792 1.53856L11.5744 5.14292C11.7215 5.45139 12.0042 5.6652 12.3312 5.71529L16.1448 6.28765C16.5194 6.34792 16.8301 6.622 16.949 6.99723C17.068 7.37246 16.9751 7.78553 16.7087 8.06663L13.9338 10.8821C13.7024 11.1199 13.5971 11.4608 13.6519 11.7947L14.3048 15.7549C14.3706 16.1538 14.2111 16.5567 13.8945 16.7911C13.5779 17.0254 13.1604 17.0496 12.8209 16.8532L9.39307 14.9814C9.10424 14.8272 8.76188 14.8272 8.47305 14.9814L5.04525 16.8532C4.7069 17.064 4.28104 17.0465 3.95964 16.8087C3.63824 16.5708 3.482 16.1574 3.56135 15.7549L4.21427 11.7947C4.27074 11.4577 4.15893 11.1138 3.91749 10.8821L1.24648 8.06663C1.01122 7.78675 0.937954 7.39688 1.05451 7.04515C1.17106 6.69342 1.45955 6.43382 1.81036 6.365L5.62397 5.79263C5.95092 5.74254 6.23362 5.52873 6.38076 5.22027L8.08724 1.61591C8.24065 1.25567 8.57678 1.01731 8.95454 1.0009C9.3323 0.984494 9.68629 1.19287 9.86792 1.53856Z" fill="#FFC300" stroke="#9E7C0F"/>
</svg>
