<svg width="325" height="73" viewBox="0 0 325 73" fill="none" xmlns="http://www.w3.org/2000/svg">
<path d="M2.39777 16.9011C2.39777 26.2641 9.34864 30.0728 15.9799 32.612C21.9721 34.913 27.1652 36.4207 27.1652 40.0707C27.1652 43.0065 24.4488 44.9109 20.6138 44.9109C15.9 44.9109 11.0264 42.2924 8.07031 39.5152L0.400391 48.4022C5.51367 53.3217 12.7042 57.1304 21.5726 57.1304C33.3172 57.1304 41.5463 49.6717 41.5463 39.2772C41.5463 33.0087 38.1109 28.0891 32.9976 24.9946C25.9668 20.7891 16.7789 19.837 16.7789 15.9489C16.7789 13.7272 19.0159 12.2196 23.4102 12.2196C27.0054 12.2196 30.5208 13.4891 33.3172 15.3141L39.9484 5.63369C34.6754 2.14239 29.2425 0 22.2117 0C11.5058 0 2.39777 6.10978 2.39777 16.9011Z" fill="black"/>
<path d="M76.2532 44.2761C75.0548 44.9902 73.1373 45.625 71.3796 45.625C70.1812 45.625 69.2225 45.3076 68.5034 44.6728C67.7844 44.038 67.3849 43.1652 67.3849 41.4196V27.375H78.3305V17.0598H67.3849V3.96739H53.9625V17.0598H44.7746V27.375H53.9625V42.3717C53.9625 47.7674 55.6403 50.862 57.8774 53.0837C60.9134 56.0989 65.1478 57.1304 69.0627 57.1304C74.0162 57.1304 78.0109 55.6228 80.7274 53.5598L76.2532 44.2761Z" fill="black"/>
<path d="M84.2877 36.738C84.2877 48.4022 93.3957 57.1304 105.46 57.1304C117.524 57.1304 126.632 48.4022 126.632 36.738C126.632 25.0739 117.524 16.2663 105.46 16.2663C93.3957 16.2663 84.2877 25.0739 84.2877 36.738ZM113.21 36.738C113.21 41.5783 109.934 45.2283 105.46 45.2283C100.986 45.2283 97.7101 41.5783 97.7101 36.738C97.7101 31.8978 100.986 28.1685 105.46 28.1685C109.934 28.1685 113.21 31.8978 113.21 36.738Z" fill="black"/>
<path d="M161.747 16.8217C161.108 16.7424 160.389 16.663 159.27 16.663C153.678 16.663 149.603 18.5674 147.206 21.0272V17.0598H134.982V56.337H148.405V32.9293C150.961 29.8348 154.876 28.5652 159.031 28.5652C160.149 28.5652 160.788 28.6446 161.747 28.8033V16.8217Z" fill="black"/>
<path d="M186.02 73L210.707 17.0598H196.965L188.177 37.8489L178.589 17.0598H163.969L181.226 52.7663L172.278 73H186.02Z" fill="black"/>
<path d="M217.556 56.337H225.146V0H217.556V56.337Z" fill="black"/>
<path d="M266.036 56.337H273.386V19.0435H266.036V22.4554C262.6 19.5196 258.526 18.25 254.291 18.25C250.776 18.25 247.66 19.1228 245.103 20.6304C239.431 23.963 235.436 30.2315 235.436 37.6902C235.436 45.1489 239.351 51.338 245.023 54.6707C247.58 56.1783 251.095 57.1304 254.451 57.1304C258.925 57.1304 263 55.6228 266.036 52.925V56.337ZM265.796 44.6728C263.24 48.0848 259.325 49.9891 255.49 49.9891C248.219 49.9891 243.026 44.3554 243.026 37.6902C243.026 31.1837 247.82 25.3913 255.09 25.3913C259.644 25.3913 263.479 27.6924 265.796 30.7076V44.6728Z" fill="black"/>
<path d="M293.801 52.925C296.837 55.6228 300.911 57.1304 305.385 57.1304C308.741 57.1304 312.256 56.1783 314.813 54.6707C320.486 51.338 324.4 45.1489 324.4 37.6902C324.4 30.2315 320.406 23.963 314.733 20.6304C312.176 19.1228 309.061 18.25 305.545 18.25C301.47 18.25 297.396 19.5196 294.04 22.2967V0H286.45V56.337H293.801V52.925ZM294.04 30.7076C296.357 27.6924 300.192 25.3913 304.746 25.3913C312.017 25.3913 316.81 31.1837 316.81 37.6902C316.81 44.3554 311.617 49.9891 304.347 49.9891C300.512 49.9891 296.597 48.0848 294.04 44.6728V30.7076Z" fill="black"/>
</svg>
