<svg width="3454" height="736" viewBox="0 0 3454 736" fill="none" xmlns="http://www.w3.org/2000/svg">
<path d="M20 170.4C20 264.8 89.6 303.2 156 328.8C216 352 268 367.2 268 404C268 433.6 240.8 452.8 202.4 452.8C155.2 452.8 106.4 426.4 76.8 398.4L0 488C51.2 537.6 123.2 576 212 576C329.6 576 412 500.8 412 396C412 332.8 377.6 283.2 326.4 252C256 209.6 164 200 164 160.8C164 138.4 186.4 123.2 230.4 123.2C266.4 123.2 301.6 136 329.6 154.4L396 56.8C343.2 21.6 288.8 0 218.4 0C111.2 0 20 61.6 20 170.4Z" fill="black"/>
<path d="M759.525 446.4C747.525 453.6 728.325 460 710.725 460C698.725 460 689.125 456.8 681.925 450.4C674.725 444 670.725 435.2 670.725 417.6V276H780.325V172H670.725V40H536.325V172H444.325V276H536.325V427.2C536.325 481.6 553.125 512.8 575.525 535.2C605.925 565.6 648.325 576 687.525 576C737.125 576 777.125 560.8 804.325 540L759.525 446.4Z" fill="black"/>
<path d="M839.975 370.4C839.975 488 931.175 576 1051.97 576C1172.77 576 1263.97 488 1263.97 370.4C1263.97 252.8 1172.77 164 1051.97 164C931.175 164 839.975 252.8 839.975 370.4ZM1129.58 370.4C1129.58 419.2 1096.77 456 1051.97 456C1007.17 456 974.375 419.2 974.375 370.4C974.375 321.6 1007.17 284 1051.97 284C1096.77 284 1129.58 321.6 1129.58 370.4Z" fill="black"/>
<path d="M1615.59 169.6C1609.19 168.8 1601.99 168 1590.79 168C1534.79 168 1493.99 187.2 1469.99 212V172H1347.59V568H1481.99V332C1507.59 300.8 1546.79 288 1588.39 288C1599.59 288 1605.99 288.8 1615.59 290.4V169.6Z" fill="black"/>
<path d="M1858.63 736L2105.83 172H1968.23L1880.23 381.6L1784.23 172H1637.83L1810.63 532L1721.03 736H1858.63Z" fill="black"/>
<path d="M2263.21 7.99999H2183.21V568H2511.21V492H2263.21V7.99999Z" fill="black"/>
<path d="M2869.22 568H2942.82V192H2869.22V226.4C2834.82 196.8 2794.02 184 2751.62 184C2716.42 184 2685.22 192.8 2659.62 208C2602.82 241.6 2562.82 304.8 2562.82 380C2562.82 455.2 2602.02 517.6 2658.82 551.2C2684.42 566.4 2719.62 576 2753.22 576C2798.02 576 2838.82 560.8 2869.22 533.6V568ZM2866.82 450.4C2841.22 484.8 2802.02 504 2763.62 504C2690.82 504 2638.82 447.2 2638.82 380C2638.82 314.4 2686.82 256 2759.62 256C2805.22 256 2843.62 279.2 2866.82 309.6V450.4Z" fill="black"/>
<path d="M3147.23 533.6C3177.63 560.8 3218.43 576 3263.23 576C3296.83 576 3332.03 566.4 3357.63 551.2C3414.43 517.6 3453.63 455.2 3453.63 380C3453.63 304.8 3413.63 241.6 3356.83 208C3331.23 192.8 3300.03 184 3264.83 184C3224.03 184 3183.23 196.8 3149.63 224.8V0H3073.63V568H3147.23V533.6ZM3149.63 309.6C3172.83 279.2 3211.23 256 3256.83 256C3329.63 256 3377.63 314.4 3377.63 380C3377.63 447.2 3325.63 504 3252.83 504C3214.43 504 3175.23 484.8 3149.63 450.4V309.6Z" fill="black"/>
</svg>
