<svg width="20" height="20" viewBox="0 0 20 20" fill="none" xmlns="http://www.w3.org/2000/svg">
<path fill-rule="evenodd" clip-rule="evenodd" d="M6.65205 2.70837C6.65205 2.3632 6.93126 2.08337 7.27568 2.08337H12.6805C13.0249 2.08337 13.3041 2.3632 13.3041 2.70837C13.3041 3.05355 13.0249 3.33337 12.6805 3.33337H7.27568C6.93126 3.33337 6.65205 3.05355 6.65205 2.70837ZM9.97807 16.6667C12.9631 16.6667 15.3829 14.2416 15.3829 11.25C15.3829 8.2585 12.9631 5.83337 9.97807 5.83337C6.99309 5.83337 4.57329 8.2585 4.57329 11.25C4.57329 14.2416 6.99309 16.6667 9.97807 16.6667ZM9.97807 17.9167C13.6519 17.9167 16.6301 14.9319 16.6301 11.25C16.6301 9.33635 15.8256 7.611 14.537 6.39517L15.3872 5.54307C15.6307 5.299 15.6307 4.90327 15.3872 4.65919C15.1436 4.41511 14.7488 4.41511 14.5052 4.65919L13.5448 5.62172C12.514 4.96425 11.2904 4.58337 9.97807 4.58337C6.30425 4.58337 3.32603 7.56814 3.32603 11.25C3.32603 14.9319 6.30425 17.9167 9.97807 17.9167ZM9.14657 11.875C9.14657 12.2202 9.42578 12.5 9.7702 12.5H12.2647C12.6091 12.5 12.8883 12.2202 12.8883 11.875C12.8883 11.5299 12.6091 11.25 12.2647 11.25H10.3938V8.12504C10.3938 7.77986 10.1146 7.50004 9.7702 7.50004C9.42578 7.50004 9.14657 7.77986 9.14657 8.12504V11.875Z" fill="#5F7081"/>
</svg>
