<svg width="37" height="38" viewBox="0 0 37 38" fill="none" xmlns="http://www.w3.org/2000/svg">
<path fill-rule="evenodd" clip-rule="evenodd" d="M18.5004 34.8333C27.2442 34.8333 34.3332 27.7451 34.3332 19C34.3332 10.2548 27.2442 3.16666 18.5004 3.16666C9.75542 3.16666 2.6665 10.2549 2.6665 19C2.6665 27.745 9.75542 34.8333 18.5004 34.8333ZM18.5004 37.3333C28.6248 37.3333 36.8332 29.1259 36.8332 19C36.8332 8.8741 28.6248 0.666656 18.5004 0.666656C8.37484 0.666656 0.166504 8.8741 0.166504 19C0.166504 29.1259 8.37484 37.3333 18.5004 37.3333Z" fill="#232323"/>
<path fill-rule="evenodd" clip-rule="evenodd" d="M28.4998 14.0098C27.8257 14.2943 27.101 14.4877 26.3391 14.5724C27.1157 14.1312 27.7127 13.4307 27.9932 12.595C27.2672 13.0047 26.4615 13.3018 25.6052 13.4624C24.9191 12.7682 23.9418 12.3333 22.8594 12.3333C20.7812 12.3333 19.0978 13.9339 19.0978 15.9101C19.0978 16.1908 19.1324 16.4626 19.1949 16.7243C16.0689 16.5751 13.2979 15.1515 11.443 12.9882C11.1185 13.5155 10.9337 14.1312 10.9337 14.7861C10.9337 16.0277 11.5972 17.1213 12.6064 17.7636C11.9895 17.7446 11.4097 17.584 10.9031 17.316V17.3602C10.9031 19.0936 12.1982 20.5387 13.9215 20.8675C13.605 20.9484 13.2726 20.9926 12.9295 20.9926C12.6862 20.9926 12.4509 20.9711 12.2208 20.9294C12.6995 22.3505 14.089 23.3834 15.7351 23.4125C14.448 24.3721 12.8258 24.9423 11.0627 24.9423C10.7595 24.9423 10.4617 24.9272 10.1665 24.893C11.8299 25.9083 13.8084 26.5 15.9319 26.5C22.8501 26.5 26.6343 21.0495 26.6343 16.3248C26.6343 16.1693 26.6303 16.015 26.6237 15.862C27.3577 15.3576 27.9959 14.7267 28.4998 14.0098Z" fill="#232323"/>
</svg>
