<svg width="32" height="32" viewBox="0 0 32 32" fill="none" xmlns="http://www.w3.org/2000/svg">
<path fill-rule="evenodd" clip-rule="evenodd" d="M16.0001 28.6667C22.9951 28.6667 28.6663 22.9961 28.6663 16C28.6663 9.00391 22.9951 3.33336 16.0001 3.33336C9.00414 3.33336 3.33301 9.00399 3.33301 16C3.33301 22.9961 9.00414 28.6667 16.0001 28.6667ZM16.0001 30.6667C24.0997 30.6667 30.6663 24.1007 30.6663 16C30.6663 7.89931 24.0997 1.33336 16.0001 1.33336C7.89968 1.33336 1.33301 7.89931 1.33301 16C1.33301 24.1007 7.89968 30.6667 16.0001 30.6667Z" fill="#E3E6EC"/>
<path fill-rule="evenodd" clip-rule="evenodd" d="M23.9997 12.0079C23.4604 12.2355 22.8806 12.3902 22.2711 12.458C22.8923 12.105 23.3699 11.5446 23.5944 10.8761C23.0136 11.2038 22.369 11.4415 21.6839 11.5699C21.1351 11.0146 20.3532 10.6667 19.4873 10.6667C17.8247 10.6667 16.4781 11.9472 16.4781 13.5281C16.4781 13.7526 16.5057 13.9701 16.5557 14.1795C14.0549 14.0601 11.8381 12.9212 10.3542 11.1906C10.0946 11.6124 9.94678 12.105 9.94678 12.6289C9.94678 13.6222 10.4776 14.4971 11.2849 15.0109C10.7914 14.9957 10.3276 14.8673 9.92231 14.6528V14.6882C9.92231 16.0749 10.9584 17.231 12.337 17.494C12.0838 17.5587 11.8179 17.5941 11.5434 17.5941C11.3488 17.5941 11.1605 17.5769 10.9765 17.5436C11.3594 18.6804 12.471 19.5068 13.7879 19.5301C12.7582 20.2978 11.4605 20.7539 10.05 20.7539C9.80743 20.7539 9.56916 20.7418 9.33301 20.7145C10.6637 21.5267 12.2466 22 13.9453 22C19.4799 22 22.5073 17.6397 22.5073 13.8599C22.5073 13.7354 22.5041 13.612 22.4988 13.4897C23.0859 13.0861 23.5965 12.5814 23.9997 12.0079Z" fill="#E3E6EC"/>
</svg>
