<svg width="32" height="32" viewBox="0 0 32 32" fill="none" xmlns="http://www.w3.org/2000/svg">
<path fill-rule="evenodd" clip-rule="evenodd" d="M16.0001 28.6667C22.9951 28.6667 28.6663 22.9961 28.6663 16C28.6663 9.00388 22.9951 3.33333 16.0001 3.33333C9.00414 3.33333 3.33301 9.00396 3.33301 16C3.33301 22.996 9.00414 28.6667 16.0001 28.6667ZM16.0001 30.6667C24.0997 30.6667 30.6663 24.1007 30.6663 16C30.6663 7.89928 24.0997 1.33333 16.0001 1.33333C7.89968 1.33333 1.33301 7.89928 1.33301 16C1.33301 24.1007 7.89968 30.6667 16.0001 30.6667Z" fill="#E3E6EC"/>
<path fill-rule="evenodd" clip-rule="evenodd" d="M14.4737 18.0742V14.1114L18.3251 16.0923L14.4737 18.0742ZM23.2146 12.9954C23.2146 12.9954 23.0982 11.9482 22.6591 11.4915C22.1014 10.8891 21.4767 10.8761 21.1896 10.8405C19.1373 10.6872 16.0589 10.6667 16.0589 10.6667H16.0526C16.0526 10.6667 12.9669 10.6872 10.9146 10.8405C10.6285 10.8761 9.99643 10.8999 9.43777 11.5012C8.99755 11.959 8.84138 13.0008 8.84138 13.0008C8.84138 13.0008 8.66634 14.2229 8.66634 15.4461V16.5916C8.66634 17.8138 8.84033 19.037 8.84033 19.037C8.84033 19.037 9.01223 20.0777 9.4514 20.5355C10.009 21.1379 10.7406 21.1185 11.0676 21.1811C12.2405 21.2977 16.0526 21.3333 16.0526 21.3333C16.0526 21.3333 19.13 21.329 21.1822 21.1757C21.4694 21.1401 22.0878 21.1379 22.6444 20.5355C23.0846 20.0777 23.2146 19.037 23.2146 19.037C23.2146 19.037 23.333 17.8138 23.333 16.5916V15.4461C23.333 14.2229 23.2146 12.9954 23.2146 12.9954Z" fill="#E3E6EC"/>
</svg>
